<svg id="f625f306-1b88-4542-ad07-febc52217a61" data-name="レイヤー 1" xmlns="http://www.w3.org/2000/svg" width="17.03" height="17.04" viewBox="0 0 17.03 17.04"><defs><style>.b7a6967a-6e4e-4068-b43a-adc90a97db4b{fill:#fff;}</style></defs><title>アートボード 1</title><path class="b7a6967a-6e4e-4068-b43a-adc90a97db4b" d="M6.27,12.9a7,7,0,0,0,8.91-1.15,7.06,7.06,0,0,0,1.58-2.81,7,7,0,0,0-1.14-6.16A7.16,7.16,0,0,0,13.14.72,7,7,0,0,0,3.89,3.66a7.12,7.12,0,0,0-.84,3.59,6.89,6.89,0,0,0,1.1,3.52l-4,4a.42.42,0,0,0-.11.16.45.45,0,0,0,0,.2.43.43,0,0,0,0,.19.42.42,0,0,0,.11.16L1.57,16.9A.47.47,0,0,0,1.9,17h0a.48.48,0,0,0,.34-.14Zm.46-8.21A4,4,0,0,1,10.85,3,4.05,4.05,0,0,1,12.9,4.1a4,4,0,0,1,1.18,2.81,4.06,4.06,0,0,1-1.14,2.82h0a4.05,4.05,0,0,1-2.05,1.11A4,4,0,0,1,6.73,4.69Z"/></svg>