<svg id="a7062563-df4d-4c9f-99c7-003456bf9b39" data-name="レイヤー 1" xmlns="http://www.w3.org/2000/svg" width="15" height="15" viewBox="0 0 15 15"><defs><style>.bbe69b40-0a24-4685-9921-ab348a791bd7{fill:#fff;}</style></defs><title>アートボード 1</title><path class="bbe69b40-0a24-4685-9921-ab348a791bd7" d="M0,14.5V15H.5a.47.47,0,0,1-.35-.15A.47.47,0,0,1,0,14.5Z"/><path class="bbe69b40-0a24-4685-9921-ab348a791bd7" d="M14.5,0a.47.47,0,0,1,.35.15A.47.47,0,0,1,15,.5V0Z"/><path class="bbe69b40-0a24-4685-9921-ab348a791bd7" d="M12,14.5V7L10,9v4H2V5H6.9l2-2H.5a.47.47,0,0,0-.35.15A.47.47,0,0,0,0,3.5v11a.47.47,0,0,0,.15.35A.47.47,0,0,0,.5,15h11a.51.51,0,0,0,.5-.5Z"/><path class="bbe69b40-0a24-4685-9921-ab348a791bd7" d="M14.5,0h-5a.47.47,0,0,0-.35.15A.47.47,0,0,0,9,.5v1a.47.47,0,0,0,.15.35A.47.47,0,0,0,9.5,2h2.09L4.53,9.06a.57.57,0,0,0-.11.16.5.5,0,0,0,0,.39.57.57,0,0,0,.11.16l.7.7a.57.57,0,0,0,.16.11.65.65,0,0,0,.19,0,.65.65,0,0,0,.2,0,.57.57,0,0,0,.16-.11L13,3.41V5.5a.51.51,0,0,0,.5.5h1a.51.51,0,0,0,.5-.5V.5a.47.47,0,0,0-.15-.35A.47.47,0,0,0,14.5,0Z"/></svg>